<?xml version="1.0" encoding="utf-8"?>
<!-- Generator: Adobe Illustrator 28.3.0, SVG Export Plug-In . SVG Version: 6.00 Build 0)  -->
<svg version="1.1" id="Layer_1" xmlns="http://www.w3.org/2000/svg" xmlns:xlink="http://www.w3.org/1999/xlink" x="0px" y="0px"
	 viewBox="0 0 320 180" style="enable-background:new 0 0 320 180;" xml:space="preserve">
<style type="text/css">
	.st0{fill:#FACA16;}
</style>
<path d="M145.4,93.9c-0.7-0.9-1.7-1.5-2.9-2c1-0.4,1.7-1.1,2.3-1.9c0.6-0.9,0.9-1.8,0.9-2.9c0-1.2-0.3-2.2-0.9-3.1
	c-0.6-0.8-1.4-1.5-2.5-2c-1-0.5-2.3-0.7-3.8-0.7h-9.6v22.1h10c1.5,0,2.8-0.3,4-0.8s2.1-1.2,2.7-2.2c0.6-0.9,0.9-2,0.9-3.3
	C146.5,95.8,146.1,94.8,145.4,93.9z M132.3,84.1h6c1.2,0,2.2,0.3,3,0.9c0.7,0.6,1.1,1.4,1.1,2.4s-0.4,1.8-1.1,2.4
	c-0.7,0.6-1.7,0.9-3,0.9h-6V84.1z M142,99.7c-0.8,0.7-1.9,1-3.3,1h-6.4v-7.3h6.4c1.4,0,2.5,0.3,3.3,1c0.8,0.6,1.2,1.5,1.2,2.6
	C143.2,98.2,142.8,99,142,99.7z M175.9,88c-0.6-1.3-1.4-2.6-2.5-3.6s-2.3-1.8-3.7-2.4s-2.9-0.9-4.5-0.9s-3.1,0.3-4.5,0.9
	c-1.4,0.5-2.6,1.4-3.7,2.4s-1.9,2.2-2.5,3.6s-0.9,2.9-0.9,4.5s0.3,3.1,0.9,4.5c0.6,1.3,1.4,2.6,2.5,3.6s2.3,1.8,3.7,2.4
	s2.9,0.9,4.5,0.9s3.1-0.3,4.5-0.9c1.4-0.5,2.6-1.4,3.7-2.4c1.1-1,1.9-2.2,2.5-3.6s0.9-2.9,0.9-4.5S176.5,89.4,175.9,88z M172.7,95.7
	c-0.4,1.1-1,2-1.7,2.7c-0.8,0.8-1.6,1.4-2.6,1.8s-2.1,0.6-3.2,0.6c-1.1,0-2.2-0.2-3.2-0.6c-1-0.5-1.9-1-2.6-1.8
	c-0.7-0.8-1.3-1.7-1.7-2.7s-0.6-2.1-0.6-3.3c0-1.2,0.2-2.3,0.6-3.3c0.4-1.1,1-1.9,1.7-2.7c0.7-0.8,1.6-1.4,2.6-1.8s2.1-0.6,3.2-0.6
	c1.1,0,2.2,0.2,3.2,0.6c1,0.5,1.9,1.1,2.6,1.8c0.7,0.8,1.3,1.7,1.7,2.7s0.6,2.1,0.6,3.3S173.1,94.7,172.7,95.7z M193,92l8-10.7h-3.9
	l-6,8.2l-6-8.2h-4l8,10.7l-8.5,11.5h3.8l6.6-9l6.6,9h4L193,92z M224.3,82.7v-1.4H209v22.3h1.4V93.2h9.1v-1.4h-9.1v-9.1H224.3z
	 M232.5,81.3v22.2h1.5V81.3H232.5z M257.2,93.4c-1.1-0.9-2.9-1.6-5.4-2l-2.7-0.4c-1.8-0.3-3.1-0.8-3.9-1.4c-0.8-0.6-1.2-1.5-1.2-2.7
	c0-0.9,0.3-1.7,0.8-2.4s1.2-1.2,2.1-1.6c0.8-0.4,1.9-0.6,3-0.6c2.6,0,5.1,0.9,7.6,2.8l0.9-1.2c-1.4-1-2.7-1.7-4.2-2.2
	s-2.9-0.7-4.4-0.7c-1.4,0-2.7,0.3-3.8,0.8s-2,1.2-2.6,2.1s-0.9,1.9-0.9,3.1c0,1.5,0.6,2.7,1.6,3.6c1.1,0.9,2.7,1.5,4.9,1.9l2.7,0.4
	c2,0.3,3.5,0.8,4.4,1.5c0.9,0.7,1.3,1.7,1.3,3c0,1-0.3,1.8-0.9,2.6c-0.5,0.7-1.3,1.4-2.3,1.8c-1,0.5-2.1,0.7-3.4,0.7
	c-1.5,0-3-0.3-4.3-1s-2.5-1.7-3.6-2.9l-1.1,1c1.2,1.4,2.6,2.5,4.1,3.2c1.6,0.7,3.2,1.1,5,1.1c1.5,0,2.9-0.3,4-0.9
	c1.2-0.6,2.2-1.3,2.9-2.3s1-2.1,1-3.3C258.8,95.7,258.3,94.3,257.2,93.4z M282.9,81.3v10.3h-14.1V81.3h-1.5v22.2h1.5V93h14.1v10.5
	h1.5V81.3H282.9z"/>
<path class="st0" d="M105.5,66.6L81.1,52.4c-3.3-1.9-7.4-1.9-10.7,0L45.8,66.6c-1.6,0.9-2.9,2.2-3.8,3.8c0,0.1-0.1,0.1-0.1,0.2
	C41,72.2,40.5,74,40.5,76v28.3c0,3.8,2,7.4,5.4,9.3l20.5,11.9l3.9,2.3c3.3,1.9,7.4,1.9,10.7,0l24.5-14.1c3.3-1.9,5.4-5.5,5.4-9.3
	V75.9C110.9,72,108.8,68.5,105.5,66.6z M101.4,107.5L78,121c-0.1,0.1-0.2,0.1-0.4,0.2c-0.9,0.4-1.9-0.3-1.9-1.3v-13.2
	c0-0.5-0.3-0.9-0.7-1.2L61.9,98v14c0,1.1-1.2,1.7-2.1,1.2l-9.9-5.7c-1.4-0.8-2.3-2.3-2.3-4V92.2c0-1.1,1.2-1.7,2.1-1.2l12.2,7V84.5
	c0-1.6-0.9-3.2-2.3-4l-9.7-5.6c-0.9-0.5-0.9-1.9,0-2.4l3.4-2l20-11.5c0.7-0.4,1.5-0.6,2.3-0.6s1.6,0.2,2.3,0.6l23.4,13.5
	c1.4,0.8,2.3,2.3,2.3,4v27h0.1C103.7,105.1,102.8,106.7,101.4,107.5z M97.9,79.4c0,2.1-1.7,3.8-3.8,3.8c-2.1,0-3.8-1.7-3.8-3.8
	c0-2.1,1.7-3.8,3.8-3.8C96.2,75.6,97.9,77.3,97.9,79.4z"/>
</svg>
